+ filenameToUse=/home/horvathandras/vatic/vatic/public/videouploads/DJI_0057_100m_50m_30m_10m_homokmegy_20180331_napos_kalaszos_T1.avi
+ filenameNoDot=DJI_0057_100m_50m_30m_10m_homokmegy_20180331_napos_kalaszos_T1
+ FullUploadPath=/home/horvathandras/vatic/vatic/public/videouploads/DJI_0057_100m_50m_30m_10m_homokmegy_20180331_napos_kalaszos_T1.avi
+ VideoDataDir=/home/horvathandras/vatic/vatic/videos
+ AvailableObjectTypes='PozitívROI NegatívROI Túrás ~Friss ~1-2Hetes ~Régebbi ~Egyéb1 ~Egyéb2 ~Egyéb3 Rágás ~Friss ~1-2Hetes ~Régebbi ~Egyéb1 ~Egyéb2 ~Egyéb3 Törés ~Friss ~1-2Hetes ~Régebbi ~Egyéb1 ~Egyéb2 ~Egyéb3 Taposás ~Friss ~1-2Hetes ~Régebbi ~Egyéb1 ~Egyéb2 ~Egyéb3 EgészségesNövény Egyéb1 Egyéb2 Egyéb3 Egyéb4 Egyéb5 Bizonytalan Művelőút Gktaposás Vetőhiba Széldöntés Jégkár Belvíz Aszály Erózió EgyszikűGyom KétszikűGyom EgyébNövvédelmiPR'
++ dirname /home/horvathandras/vatic/vatic/vatic_publisher.sh
+ cd /home/horvathandras/vatic/vatic
+ touch /home/horvathandras/vatic/vatic/public/videouploads/DJI_0057_100m_50m_30m_10m_homokmegy_20180331_napos_kalaszos_T1.avi
+ chmod 744 /home/horvathandras/vatic/vatic/public/videouploads/DJI_0057_100m_50m_30m_10m_homokmegy_20180331_napos_kalaszos_T1.avi
+ mkdir /home/horvathandras/vatic/vatic/videos/DJI_0057_100m_50m_30m_10m_homokmegy_20180331_napos_kalaszos_T1
+ turkic extract /home/horvathandras/vatic/vatic/public/videouploads/DJI_0057_100m_50m_30m_10m_homokmegy_20180331_napos_kalaszos_T1.avi /home/horvathandras/vatic/vatic/videos/DJI_0057_100m_50m_30m_10m_homokmegy_20180331_napos_kalaszos_T1 --no-resize
ffmpeg version 2.8.14-0ubuntu0.16.04.1 Copyright (c) 2000-2018 the FFmpeg developers
  built with gcc 5.4.0 (Ubuntu 5.4.0-6ubuntu1~16.04.9) 20160609
  configuration: --prefix=/usr --extra-version=0ubuntu0.16.04.1 --build-suffix=-ffmpeg --toolchain=hardened --libdir=/usr/lib/x86_64-linux-gnu --incdir=/usr/include/x86_64-linux-gnu --cc=cc --cxx=g++ --enable-gpl --enable-shared --disable-stripping --disable-decoder=libopenjpeg --disable-decoder=libschroedinger --enable-avresample --enable-avisynth --enable-gnutls --enable-ladspa --enable-libass --enable-libbluray --enable-libbs2b --enable-libcaca --enable-libcdio --enable-libflite --enable-libfontconfig --enable-libfreetype --enable-libfribidi --enable-libgme --enable-libgsm --enable-libmodplug --enable-libmp3lame --enable-libopenjpeg --enable-libopus --enable-libpulse --enable-librtmp --enable-libschroedinger --enable-libshine --enable-libsnappy --enable-libsoxr --enable-libspeex --enable-libssh --enable-libtheora --enable-libtwolame --enable-libvorbis --enable-libvpx --enable-libwavpack --enable-libwebp --enable-libx265 --enable-libxvid --enable-libzvbi --enable-openal --enable-opengl --enable-x11grab --enable-libdc1394 --enable-libiec61883 --enable-libzmq --enable-frei0r --enable-libx264 --enable-libopencv
  libavutil      54. 31.100 / 54. 31.100
  libavcodec     56. 60.100 / 56. 60.100
  libavformat    56. 40.101 / 56. 40.101
  libavdevice    56.  4.100 / 56.  4.100
  libavfilter     5. 40.101 /  5. 40.101
  libavresample   2.  1.  0 /  2.  1.  0
  libswscale      3.  1.101 /  3.  1.101
  libswresample   1.  2.101 /  1.  2.101
  libpostproc    53.  3.100 / 53.  3.100
Input #0, mov,mp4,m4a,3gp,3g2,mj2, from '/home/horvathandras/vatic/vatic/public/videouploads/DJI_0057_100m_50m_30m_10m_homokmegy_20180331_napos_kalaszos_T1.avi':
  Metadata:
    major_brand     : qt  
    minor_version   : 537986816
    compatible_brands: qt  
    creation_time   : 2018-03-31 11:02:50
    location        : +46.517534+19.172376+101.700
    location-{    : +46.517534+19.172376+101.700
    comment         : DE=None, Mode=P, DSW=0001
  Duration: 00:01:22.75, start: 0.000000, bitrate: 100161 kb/s
    Stream #0:0(eng): Video: h264 (High) (avc1 / 0x31637661), yuv420p(tv, bt709), 3840x2160 [SAR 1:1 DAR 16:9], 100126 kb/s, 29.97 fps, 29.97 tbr, 30k tbn, 59.94 tbc (default)
    Metadata:
      creation_time   : 2018-03-31 11:02:50
      handler_name    : DJI.AVC
      encoder         : AVC encoder
    Stream #0:1(eng): Data: none (priv / 0x76697270), 32 kb/s
    Metadata:
      creation_time   : 2018-03-31 11:02:50
      handler_name    : DJI.Meta
Please use -b:a or -b:v, -b is ambiguous
[swscaler @ 0x217e640] deprecated pixel format used, make sure you did set range correctly
Output #0, image2, to '/tmp/pyvision-ffmpeg-709950040/%d.jpg':
  Metadata:
    major_brand     : qt  
    minor_version   : 537986816
    compatible_brands: qt  
    comment         : DE=None, Mode=P, DSW=0001
    location        : +46.517534+19.172376+101.700
    location-{    : +46.517534+19.172376+101.700
    encoder         : Lavf56.40.101
    Stream #0:0(eng): Video: mjpeg, yuvj420p(pc), 3840x2160 [SAR 1:1 DAR 16:9], q=2-31, 10000 kb/s, 29.97 fps, 29.97 tbn, 29.97 tbc (default)
    Metadata:
      creation_time   : 2018-03-31 11:02:50
      handler_name    : DJI.AVC
      encoder         : Lavc56.60.100 mjpeg
Stream mapping:
  Stream #0:0 -> #0:0 (h264 (native) -> mjpeg (native))
Press [q] to stop, [?] for help
frame=    1 fps=0.0 q=11.8 size=N/A time=00:00:00.03 bitrate=N/A    frame=    6 fps=5.1 q=24.1 size=N/A time=00:00:00.20 bitrate=N/A    frame=   12 fps=6.9 q=24.8 size=N/A time=00:00:00.40 bitrate=N/A    frame=   18 fps=7.9 q=24.8 size=N/A time=00:00:00.60 bitrate=N/A    frame=   24 fps=8.4 q=24.8 size=N/A time=00:00:00.80 bitrate=N/A    frame=   30 fps=8.8 q=24.8 size=N/A time=00:00:01.00 bitrate=N/A    frame=   34 fps=8.7 q=24.8 size=N/A time=00:00:01.13 bitrate=N/A    frame=   40 fps=8.9 q=24.8 size=N/A time=00:00:01.33 bitrate=N/A    frame=   46 fps=9.1 q=24.8 size=N/A time=00:00:01.53 bitrate=N/A    frame=   52 fps=9.3 q=24.8 size=N/A time=00:00:01.73 bitrate=N/A    frame=   58 fps=9.4 q=24.8 size=N/A time=00:00:01.93 bitrate=N/A    frame=   63 fps=9.4 q=24.8 size=N/A time=00:00:02.10 bitrate=N/A    frame=   69 fps=9.5 q=24.8 size=N/A time=00:00:02.30 bitrate=N/A    frame=   75 fps=9.6 q=24.8 size=N/A time=00:00:02.50 bitrate=N/A    frame=   81 fps=9.7 q=24.8 size=N/A time=00:00:02.70 bitrate=N/A    frame=   87 fps=9.8 q=24.8 size=N/A time=00:00:02.90 bitrate=N/A    frame=   93 fps=9.8 q=24.8 size=N/A time=00:00:03.10 bitrate=N/A    frame=   99 fps=9.8 q=24.8 size=N/A time=00:00:03.30 bitrate=N/A    frame=  105 fps=9.9 q=24.8 size=N/A time=00:00:03.50 bitrate=N/A    frame=  111 fps=9.9 q=24.8 size=N/A time=00:00:03.70 bitrate=N/A    frame=  117 fps= 10 q=24.8 size=N/A time=00:00:03.90 bitrate=N/A    frame=  123 fps= 10 q=24.8 size=N/A time=00:00:04.10 bitrate=N/A    frame=  129 fps= 10 q=24.8 size=N/A time=00:00:04.30 bitrate=N/A    frame=  135 fps= 10 q=24.8 size=N/A time=00:00:04.50 bitrate=N/A    frame=  141 fps= 10 q=24.8 size=N/A time=00:00:04.70 bitrate=N/A    frame=  147 fps= 10 q=24.8 size=N/A time=00:00:04.90 bitrate=N/A    frame=  153 fps= 10 q=24.8 size=N/A time=00:00:05.10 bitrate=N/A    frame=  159 fps= 10 q=24.8 size=N/A time=00:00:05.30 bitrate=N/A    frame=  165 fps= 10 q=24.8 size=N/A time=00:00:05.50 bitrate=N/A    frame=  171 fps= 10 q=24.8 size=N/A time=00:00:05.70 bitrate=N/A    frame=  177 fps= 10 q=24.8 size=N/A time=00:00:05.90 bitrate=N/A    frame=  183 fps= 10 q=24.8 size=N/A time=00:00:06.10 bitrate=N/A    frame=  189 fps= 10 q=24.8 size=N/A time=00:00:06.30 bitrate=N/A    frame=  195 fps= 10 q=24.8 size=N/A time=00:00:06.50 bitrate=N/A    frame=  201 fps= 10 q=24.8 size=N/A time=00:00:06.70 bitrate=N/A    frame=  207 fps= 10 q=24.8 size=N/A time=00:00:06.90 bitrate=N/A    frame=  213 fps= 10 q=24.8 size=N/A time=00:00:07.10 bitrate=N/A    frame=  219 fps= 10 q=24.8 size=N/A time=00:00:07.30 bitrate=N/A    frame=  225 fps= 10 q=24.8 size=N/A time=00:00:07.50 bitrate=N/A    frame=  231 fps= 10 q=24.8 size=N/A time=00:00:07.70 bitrate=N/A    frame=  237 fps= 10 q=24.8 size=N/A time=00:00:07.90 bitrate=N/A    frame=  243 fps= 10 q=24.8 size=N/A time=00:00:08.10 bitrate=N/A    frame=  249 fps= 10 q=24.8 size=N/A time=00:00:08.30 bitrate=N/A    frame=  255 fps= 10 q=24.8 size=N/A time=00:00:08.50 bitrate=N/A    frame=  261 fps= 10 q=24.8 size=N/A time=00:00:08.70 bitrate=N/A    frame=  267 fps= 10 q=24.8 size=N/A time=00:00:08.90 bitrate=N/A    frame=  273 fps= 10 q=24.8 size=N/A time=00:00:09.10 bitrate=N/A    frame=  279 fps= 10 q=24.8 size=N/A time=00:00:09.30 bitrate=N/A    frame=  285 fps= 10 q=24.8 size=N/A time=00:00:09.50 bitrate=N/A    frame=  291 fps= 10 q=24.8 size=N/A time=00:00:09.70 bitrate=N/A    frame=  297 fps= 10 q=24.8 size=N/A time=00:00:09.90 bitrate=N/A    frame=  303 fps= 10 q=24.8 size=N/A time=00:00:10.11 bitrate=N/A    frame=  309 fps= 10 q=24.8 size=N/A time=00:00:10.31 bitrate=N/A    frame=  315 fps= 10 q=24.8 size=N/A time=00:00:10.51 bitrate=N/A    frame=  321 fps= 10 q=24.8 size=N/A time=00:00:10.71 bitrate=N/A    frame=  327 fps= 10 q=24.8 size=N/A time=00:00:10.91 bitrate=N/A    frame=  333 fps= 10 q=24.8 size=N/A time=00:00:11.11 bitrate=N/A    frame=  339 fps= 10 q=24.8 size=N/A time=00:00:11.31 bitrate=N/A    frame=  345 fps= 10 q=24.8 size=N/A time=00:00:11.51 bitrate=N/A    frame=  351 fps= 10 q=24.8 size=N/A time=00:00:11.71 bitrate=N/A    frame=  357 fps= 10 q=24.8 size=N/A time=00:00:11.91 bitrate=N/A    frame=  363 fps= 10 q=24.8 size=N/A time=00:00:12.11 bitrate=N/A    frame=  369 fps= 10 q=24.8 size=N/A time=00:00:12.31 bitrate=N/A    frame=  375 fps= 10 q=24.8 size=N/A time=00:00:12.51 bitrate=N/A    frame=  381 fps= 10 q=24.8 size=N/A time=00:00:12.71 bitrate=N/A    frame=  387 fps= 10 q=24.8 size=N/A time=00:00:12.91 bitrate=N/A    frame=  393 fps= 10 q=24.8 size=N/A time=00:00:13.11 bitrate=N/A    frame=  399 fps= 10 q=24.8 size=N/A time=00:00:13.31 bitrate=N/A    frame=  405 fps= 10 q=24.8 size=N/A time=00:00:13.51 bitrate=N/A    frame=  411 fps= 10 q=24.8 size=N/A time=00:00:13.71 bitrate=N/A    frame=  417 fps= 10 q=24.8 size=N/A time=00:00:13.91 bitrate=N/A    frame=  423 fps= 10 q=24.8 size=N/A time=00:00:14.11 bitrate=N/A    frame=  429 fps= 10 q=24.8 size=N/A time=00:00:14.31 bitrate=N/A    frame=  435 fps= 10 q=24.8 size=N/A time=00:00:14.51 bitrate=N/A    frame=  441 fps= 11 q=24.8 size=N/A time=00:00:14.71 bitrate=N/A    frame=  447 fps= 11 q=24.8 size=N/A time=00:00:14.91 bitrate=N/A    frame=  453 fps= 11 q=24.8 size=N/A time=00:00:15.11 bitrate=N/A    frame=  459 fps= 11 q=24.8 size=N/A time=00:00:15.31 bitrate=N/A    frame=  465 fps= 11 q=24.8 size=N/A time=00:00:15.51 bitrate=N/A    frame=  471 fps= 11 q=24.8 size=N/A time=00:00:15.71 bitrate=N/A    frame=  477 fps= 11 q=24.8 size=N/A time=00:00:15.91 bitrate=N/A    frame=  483 fps= 11 q=24.8 size=N/A time=00:00:16.11 bitrate=N/A    frame=  489 fps= 11 q=24.8 size=N/A time=00:00:16.31 bitrate=N/A    frame=  495 fps= 11 q=24.8 size=N/A time=00:00:16.51 bitrate=N/A    frame=  501 fps= 11 q=24.8 size=N/A time=00:00:16.71 bitrate=N/A    frame=  507 fps= 11 q=24.8 size=N/A time=00:00:16.91 bitrate=N/A    frame=  513 fps= 11 q=24.8 size=N/A time=00:00:17.11 bitrate=N/A    frame=  519 fps= 11 q=24.8 size=N/A time=00:00:17.31 bitrate=N/A    frame=  525 fps= 11 q=24.8 size=N/A time=00:00:17.51 bitrate=N/A    frame=  531 fps= 11 q=24.8 size=N/A time=00:00:17.71 bitrate=N/A    frame=  537 fps= 11 q=24.8 size=N/A time=00:00:17.91 bitrate=N/A    frame=  543 fps= 11 q=24.8 size=N/A time=00:00:18.11 bitrate=N/A    frame=  549 fps= 11 q=24.8 size=N/A time=00:00:18.31 bitrate=N/A    frame=  555 fps= 11 q=24.8 size=N/A time=00:00:18.51 bitrate=N/A    frame=  561 fps= 11 q=24.8 size=N/A time=00:00:18.71 bitrate=N/A    frame=  567 fps= 11 q=24.8 size=N/A time=00:00:18.91 bitrate=N/A    frame=  573 fps= 11 q=24.8 size=N/A time=00:00:19.11 bitrate=N/A    frame=  579 fps= 11 q=24.8 size=N/A time=00:00:19.31 bitrate=N/A    frame=  585 fps= 11 q=24.8 size=N/A time=00:00:19.51 bitrate=N/A    frame=  591 fps= 11 q=24.8 size=N/A time=00:00:19.71 bitrate=N/A    frame=  597 fps= 11 q=24.8 size=N/A time=00:00:19.91 bitrate=N/A    frame=  603 fps= 11 q=24.8 size=N/A time=00:00:20.12 bitrate=N/A    frame=  609 fps= 11 q=24.8 size=N/A time=00:00:20.32 bitrate=N/A    frame=  615 fps= 11 q=24.8 size=N/A time=00:00:20.52 bitrate=N/A    frame=  621 fps= 11 q=24.8 size=N/A time=00:00:20.72 bitrate=N/A    frame=  627 fps= 11 q=24.8 size=N/A time=00:00:20.92 bitrate=N/A    frame=  633 fps= 11 q=24.8 size=N/A time=00:00:21.12 bitrate=N/A    frame=  639 fps= 11 q=24.8 size=N/A time=00:00:21.32 bitrate=N/A    frame=  645 fps= 11 q=24.8 size=N/A time=00:00:21.52 bitrate=N/A    frame=  651 fps= 11 q=24.8 size=N/A time=00:00:21.72 bitrate=N/A    frame=  657 fps= 11 q=24.8 size=N/A time=00:00:21.92 bitrate=N/A    frame=  663 fps= 11 q=24.8 size=N/A time=00:00:22.12 bitrate=N/A    frame=  669 fps= 11 q=24.8 size=N/A time=00:00:22.32 bitrate=N/A    frame=  675 fps= 11 q=24.8 size=N/A time=00:00:22.52 bitrate=N/A    frame=  681 fps= 11 q=24.8 size=N/A time=00:00:22.72 bitrate=N/A    frame=  687 fps= 11 q=24.8 size=N/A time=00:00:22.92 bitrate=N/A    frame=  693 fps= 11 q=24.8 size=N/A time=00:00:23.12 bitrate=N/A    frame=  699 fps= 11 q=24.8 size=N/A time=00:00:23.32 bitrate=N/A    frame=  705 fps= 11 q=24.8 size=N/A time=00:00:23.52 bitrate=N/A    frame=  711 fps= 11 q=24.8 size=N/A time=00:00:23.72 bitrate=N/A    frame=  717 fps= 11 q=24.8 size=N/A time=00:00:23.92 bitrate=N/A    frame=  723 fps= 11 q=24.8 size=N/A time=00:00:24.12 bitrate=N/A    frame=  729 fps= 11 q=24.8 size=N/A time=00:00:24.32 bitrate=N/A    frame=  735 fps= 11 q=24.8 size=N/A time=00:00:24.52 bitrate=N/A    frame=  741 fps= 11 q=24.8 size=N/A time=00:00:24.72 bitrate=N/A    frame=  747 fps= 11 q=24.8 size=N/A time=00:00:24.92 bitrate=N/A    frame=  753 fps= 11 q=24.8 size=N/A time=00:00:25.12 bitrate=N/A    frame=  759 fps= 11 q=24.8 size=N/A time=00:00:25.32 bitrate=N/A    frame=  765 fps= 11 q=24.8 size=N/A time=00:00:25.52 bitrate=N/A    frame=  771 fps= 11 q=24.8 size=N/A time=00:00:25.72 bitrate=N/A    frame=  777 fps= 11 q=24.8 size=N/A time=00:00:25.92 bitrate=N/A    frame=  783 fps= 11 q=24.8 size=N/A time=00:00:26.12 bitrate=N/A    frame=  789 fps= 11 q=24.8 size=N/A time=00:00:26.32 bitrate=N/A    frame=  795 fps= 11 q=24.8 size=N/A time=00:00:26.52 bitrate=N/A    frame=  801 fps= 11 q=24.8 size=N/A time=00:00:26.72 bitrate=N/A    frame=  807 fps= 11 q=24.8 size=N/A time=00:00:26.92 bitrate=N/A    frame=  813 fps= 11 q=24.8 size=N/A time=00:00:27.12 bitrate=N/A    frame=  819 fps= 11 q=24.8 size=N/A time=00:00:27.32 bitrate=N/A    frame=  825 fps= 11 q=24.8 size=N/A time=00:00:27.52 bitrate=N/A    frame=  831 fps= 11 q=24.8 size=N/A time=00:00:27.72 bitrate=N/A    frame=  837 fps= 11 q=24.8 size=N/A time=00:00:27.92 bitrate=N/A    frame=  843 fps= 11 q=24.8 size=N/A time=00:00:28.12 bitrate=N/A    frame=  849 fps= 11 q=24.8 size=N/A time=00:00:28.32 bitrate=N/A    frame=  855 fps= 11 q=24.8 size=N/A time=00:00:28.52 bitrate=N/A    frame=  861 fps= 11 q=24.8 size=N/A time=00:00:28.72 bitrate=N/A    frame=  867 fps= 11 q=24.8 size=N/A time=00:00:28.92 bitrate=N/A    frame=  873 fps= 11 q=24.8 size=N/A time=00:00:29.12 bitrate=N/A    frame=  879 fps= 11 q=24.8 size=N/A time=00:00:29.32 bitrate=N/A    frame=  885 fps= 11 q=24.8 size=N/A time=00:00:29.52 bitrate=N/A    frame=  891 fps= 11 q=24.8 size=N/A time=00:00:29.72 bitrate=N/A    frame=  897 fps= 11 q=24.8 size=N/A time=00:00:29.92 bitrate=N/A    frame=  903 fps= 11 q=24.8 size=N/A time=00:00:30.13 bitrate=N/A    frame=  909 fps= 11 q=24.8 size=N/A time=00:00:30.33 bitrate=N/A    frame=  915 fps= 11 q=24.8 size=N/A time=00:00:30.53 bitrate=N/A    frame=  921 fps= 11 q=24.8 size=N/A time=00:00:30.73 bitrate=N/A    frame=  927 fps= 11 q=24.8 size=N/A time=00:00:30.93 bitrate=N/A    frame=  932 fps= 11 q=24.8 size=N/A time=00:00:31.09 bitrate=N/A    frame=  938 fps= 11 q=24.8 size=N/A time=00:00:31.29 bitrate=N/A    frame=  944 fps= 11 q=24.8 size=N/A time=00:00:31.49 bitrate=N/A    frame=  950 fps= 11 q=24.8 size=N/A time=00:00:31.69 bitrate=N/A    frame=  956 fps= 11 q=24.8 size=N/A time=00:00:31.89 bitrate=N/A    frame=  961 fps= 11 q=24.8 size=N/A time=00:00:32.06 bitrate=N/A    frame=  967 fps= 11 q=24.8 size=N/A time=00:00:32.26 bitrate=N/A    frame=  973 fps= 11 q=24.8 size=N/A time=00:00:32.46 bitrate=N/A    frame=  979 fps= 11 q=24.8 size=N/A time=00:00:32.66 bitrate=N/A    frame=  985 fps= 11 q=24.8 size=N/A time=00:00:32.86 bitrate=N/A    frame=  991 fps= 11 q=24.8 size=N/A time=00:00:33.06 bitrate=N/A    frame=  997 fps= 11 q=24.8 size=N/A time=00:00:33.26 bitrate=N/A    frame= 1003 fps= 11 q=24.8 size=N/A time=00:00:33.46 bitrate=N/A    frame= 1009 fps= 11 q=24.8 size=N/A time=00:00:33.66 bitrate=N/A    frame= 1015 fps= 11 q=24.8 size=N/A time=00:00:33.86 bitrate=N/A    frame= 1021 fps= 11 q=24.8 size=N/A time=00:00:34.06 bitrate=N/A    frame= 1027 fps= 11 q=24.8 size=N/A time=00:00:34.26 bitrate=N/A    frame= 1033 fps= 11 q=24.8 size=N/A time=00:00:34.46 bitrate=N/A    frame= 1039 fps= 11 q=24.8 size=N/A time=00:00:34.66 bitrate=N/A    frame= 1045 fps= 11 q=24.8 size=N/A time=00:00:34.86 bitrate=N/A    frame= 1051 fps= 11 q=24.8 size=N/A time=00:00:35.06 bitrate=N/A    frame= 1057 fps= 11 q=24.8 size=N/A time=00:00:35.26 bitrate=N/A    frame= 1063 fps= 11 q=24.8 size=N/A time=00:00:35.46 bitrate=N/A    frame= 1069 fps= 11 q=24.8 size=N/A time=00:00:35.66 bitrate=N/A    frame= 1075 fps= 11 q=24.8 size=N/A time=00:00:35.86 bitrate=N/A    frame= 1081 fps= 11 q=24.8 size=N/A time=00:00:36.06 bitrate=N/A    frame= 1087 fps= 11 q=24.8 size=N/A time=00:00:36.26 bitrate=N/A    frame= 1093 fps= 11 q=24.8 size=N/A time=00:00:36.46 bitrate=N/A    frame= 1099 fps= 11 q=24.8 size=N/A time=00:00:36.66 bitrate=N/A    frame= 1105 fps= 11 q=24.8 size=N/A time=00:00:36.87 bitrate=N/A    frame= 1111 fps= 11 q=24.8 size=N/A time=00:00:37.07 bitrate=N/A    frame= 1117 fps= 11 q=24.8 size=N/A time=00:00:37.27 bitrate=N/A    frame= 1123 fps= 11 q=24.8 size=N/A time=00:00:37.47 bitrate=N/A    frame= 1129 fps= 11 q=24.8 size=N/A time=00:00:37.67 bitrate=N/A    frame= 1135 fps= 11 q=24.8 size=N/A time=00:00:37.87 bitrate=N/A    frame= 1141 fps= 11 q=24.8 size=N/A time=00:00:38.07 bitrate=N/A    frame= 1147 fps= 11 q=24.8 size=N/A time=00:00:38.27 bitrate=N/A    frame= 1153 fps= 10 q=24.8 size=N/A time=00:00:38.47 bitrate=N/A    frame= 1159 fps= 10 q=24.8 size=N/A time=00:00:38.67 bitrate=N/A    frame= 1165 fps= 10 q=24.8 size=N/A time=00:00:38.87 bitrate=N/A    frame= 1171 fps= 10 q=24.8 size=N/A time=00:00:39.07 bitrate=N/A    frame= 1177 fps= 10 q=24.8 size=N/A time=00:00:39.27 bitrate=N/A    frame= 1183 fps= 10 q=24.8 size=N/A time=00:00:39.47 bitrate=N/A    frame= 1189 fps= 10 q=24.8 size=N/A time=00:00:39.67 bitrate=N/A    frame= 1195 fps= 10 q=24.8 size=N/A time=00:00:39.87 bitrate=N/A    frame= 1201 fps= 10 q=24.8 size=N/A time=00:00:40.07 bitrate=N/A    frame= 1207 fps= 10 q=24.8 size=N/A time=00:00:40.27 bitrate=N/A    frame= 1213 fps= 10 q=24.8 size=N/A time=00:00:40.47 bitrate=N/A    frame= 1219 fps= 10 q=24.8 size=N/A time=00:00:40.67 bitrate=N/A    frame= 1225 fps= 10 q=24.8 size=N/A time=00:00:40.87 bitrate=N/A    frame= 1231 fps= 10 q=24.8 size=N/A time=00:00:41.07 bitrate=N/A    frame= 1237 fps= 10 q=24.8 size=N/A time=00:00:41.27 bitrate=N/A    frame= 1243 fps= 10 q=24.8 size=N/A time=00:00:41.47 bitrate=N/A    frame= 1249 fps= 10 q=24.8 size=N/A time=00:00:41.67 bitrate=N/A    frame= 1255 fps= 10 q=24.8 size=N/A time=00:00:41.87 bitrate=N/A    frame= 1261 fps= 10 q=24.8 size=N/A time=00:00:42.07 bitrate=N/A    frame= 1267 fps= 10 q=24.8 size=N/A time=00:00:42.27 bitrate=N/A    frame= 1273 fps= 10 q=24.8 size=N/A time=00:00:42.47 bitrate=N/A    frame= 1279 fps= 10 q=24.8 size=N/A time=00:00:42.67 bitrate=N/A    frame= 1285 fps= 10 q=24.8 size=N/A time=00:00:42.87 bitrate=N/A    frame= 1291 fps= 10 q=24.8 size=N/A time=00:00:43.07 bitrate=N/A    frame= 1297 fps= 10 q=24.8 size=N/A time=00:00:43.27 bitrate=N/A    frame= 1303 fps= 10 q=24.8 size=N/A time=00:00:43.47 bitrate=N/A    frame= 1309 fps= 10 q=24.8 size=N/A time=00:00:43.67 bitrate=N/A    frame= 1315 fps= 10 q=24.8 size=N/A time=00:00:43.87 bitrate=N/A    frame= 1321 fps= 10 q=24.8 size=N/A time=00:00:44.07 bitrate=N/A    frame= 1327 fps= 10 q=24.8 size=N/A time=00:00:44.27 bitrate=N/A    frame= 1333 fps= 10 q=24.8 size=N/A time=00:00:44.47 bitrate=N/A    frame= 1339 fps= 10 q=24.8 size=N/A time=00:00:44.67 bitrate=N/A    frame= 1345 fps= 10 q=24.8 size=N/A time=00:00:44.87 bitrate=N/A    frame= 1351 fps= 10 q=24.8 size=N/A time=00:00:45.07 bitrate=N/A    frame= 1357 fps= 10 q=24.8 size=N/A time=00:00:45.27 bitrate=N/A    frame= 1363 fps= 10 q=24.8 size=N/A time=00:00:45.47 bitrate=N/A    frame= 1369 fps= 10 q=24.8 size=N/A time=00:00:45.67 bitrate=N/A    frame= 1375 fps= 10 q=24.8 size=N/A time=00:00:45.87 bitrate=N/A    frame= 1381 fps= 10 q=24.8 size=N/A time=00:00:46.07 bitrate=N/A    frame= 1387 fps= 10 q=24.8 size=N/A time=00:00:46.27 bitrate=N/A    frame= 1393 fps= 10 q=24.8 size=N/A time=00:00:46.47 bitrate=N/A    frame= 1399 fps= 10 q=24.8 size=N/A time=00:00:46.67 bitrate=N/A    frame= 1405 fps= 10 q=24.8 size=N/A time=00:00:46.88 bitrate=N/A    frame= 1411 fps= 10 q=24.8 size=N/A time=00:00:47.08 bitrate=N/A    frame= 1417 fps= 10 q=24.8 size=N/A time=00:00:47.28 bitrate=N/A    frame= 1423 fps= 10 q=24.8 size=N/A time=00:00:47.48 bitrate=N/A    frame= 1429 fps= 10 q=24.8 size=N/A time=00:00:47.68 bitrate=N/A    frame= 1435 fps= 10 q=24.8 size=N/A time=00:00:47.88 bitrate=N/A    frame= 1441 fps= 10 q=24.8 size=N/A time=00:00:48.08 bitrate=N/A    frame= 1447 fps= 10 q=24.8 size=N/A time=00:00:48.28 bitrate=N/A    frame= 1453 fps= 10 q=24.8 size=N/A time=00:00:48.48 bitrate=N/A    frame= 1459 fps= 10 q=24.8 size=N/A time=00:00:48.68 bitrate=N/A    frame= 1465 fps= 10 q=24.8 size=N/A time=00:00:48.88 bitrate=N/A    frame= 1471 fps= 10 q=24.8 size=N/A time=00:00:49.08 bitrate=N/A    frame= 1477 fps= 10 q=24.8 size=N/A time=00:00:49.28 bitrate=N/A    frame= 1483 fps= 10 q=24.8 size=N/A time=00:00:49.48 bitrate=N/A    frame= 1489 fps= 10 q=24.8 size=N/A time=00:00:49.68 bitrate=N/A    frame= 1495 fps= 10 q=24.8 size=N/A time=00:00:49.88 bitrate=N/A    frame= 1501 fps= 10 q=24.8 size=N/A time=00:00:50.08 bitrate=N/A    frame= 1507 fps= 10 q=24.8 size=N/A time=00:00:50.28 bitrate=N/A    frame= 1513 fps= 10 q=24.8 size=N/A time=00:00:50.48 bitrate=N/A    frame= 1519 fps= 10 q=24.8 size=N/A time=00:00:50.68 bitrate=N/A    frame= 1525 fps= 10 q=24.8 size=N/A time=00:00:50.88 bitrate=N/A    frame= 1531 fps= 10 q=24.8 size=N/A time=00:00:51.08 bitrate=N/A    frame= 1537 fps= 10 q=24.8 size=N/A time=00:00:51.28 bitrate=N/A    frame= 1543 fps= 10 q=24.8 size=N/A time=00:00:51.48 bitrate=N/A    frame= 1549 fps= 10 q=24.8 size=N/A time=00:00:51.68 bitrate=N/A    frame= 1555 fps= 10 q=24.8 size=N/A time=00:00:51.88 bitrate=N/A    frame= 1560 fps= 10 q=24.8 size=N/A time=00:00:52.05 bitrate=N/A    frame= 1565 fps= 10 q=24.8 size=N/A time=00:00:52.21 bitrate=N/A    frame= 1570 fps= 10 q=24.8 size=N/A time=00:00:52.38 bitrate=N/A    frame= 1575 fps= 10 q=24.8 size=N/A time=00:00:52.55 bitrate=N/A    frame= 1580 fps= 10 q=24.8 size=N/A time=00:00:52.71 bitrate=N/A    frame= 1585 fps= 10 q=24.8 size=N/A time=00:00:52.88 bitrate=N/A    frame= 1590 fps= 10 q=24.8 size=N/A time=00:00:53.05 bitrate=N/A    frame= 1595 fps= 10 q=24.8 size=N/A time=00:00:53.21 bitrate=N/A    frame= 1600 fps= 10 q=24.8 size=N/A time=00:00:53.38 bitrate=N/A    frame= 1605 fps= 10 q=24.8 size=N/A time=00:00:53.55 bitrate=N/A    frame= 1610 fps= 10 q=24.8 size=N/A time=00:00:53.72 bitrate=N/A    frame= 1615 fps= 10 q=24.8 size=N/A time=00:00:53.88 bitrate=N/A    frame= 1620 fps= 10 q=24.8 size=N/A time=00:00:54.05 bitrate=N/A    frame= 1625 fps= 10 q=24.8 size=N/A time=00:00:54.22 bitrate=N/A    frame= 1630 fps= 10 q=24.8 size=N/A time=00:00:54.38 bitrate=N/A    frame= 1635 fps= 10 q=24.8 size=N/A time=00:00:54.55 bitrate=N/A    frame= 1640 fps= 10 q=24.8 size=N/A time=00:00:54.72 bitrate=N/A    frame= 1645 fps= 10 q=24.8 size=N/A time=00:00:54.88 bitrate=N/A    frame= 1650 fps= 10 q=24.8 size=N/A time=00:00:55.05 bitrate=N/A    frame= 1655 fps= 10 q=24.8 size=N/A time=00:00:55.22 bitrate=N/A    frame= 1660 fps= 10 q=24.8 size=N/A time=00:00:55.38 bitrate=N/A    frame= 1665 fps= 10 q=24.8 size=N/A time=00:00:55.55 bitrate=N/A    frame= 1670 fps= 10 q=24.8 size=N/A time=00:00:55.72 bitrate=N/A    frame= 1675 fps= 10 q=24.8 size=N/A time=00:00:55.88 bitrate=N/A    frame= 1680 fps= 10 q=24.8 size=N/A time=00:00:56.05 bitrate=N/A    frame= 1685 fps= 10 q=24.8 size=N/A time=00:00:56.22 bitrate=N/A    frame= 1690 fps= 10 q=24.8 size=N/A time=00:00:56.38 bitrate=N/A    frame= 1695 fps= 10 q=24.8 size=N/A time=00:00:56.55 bitrate=N/A    frame= 1700 fps= 10 q=24.8 size=N/A time=00:00:56.72 bitrate=N/A    frame= 1705 fps= 10 q=24.8 size=N/A time=00:00:56.89 bitrate=N/A    frame= 1710 fps= 10 q=24.8 size=N/A time=00:00:57.05 bitrate=N/A    frame= 1715 fps= 10 q=24.8 size=N/A time=00:00:57.22 bitrate=N/A    frame= 1720 fps= 10 q=24.8 size=N/A time=00:00:57.39 bitrate=N/A    frame= 1725 fps= 10 q=24.8 size=N/A time=00:00:57.55 bitrate=N/A    frame= 1730 fps= 10 q=24.8 size=N/A time=00:00:57.72 bitrate=N/A    frame= 1735 fps= 10 q=24.8 size=N/A time=00:00:57.89 bitrate=N/A    frame= 1740 fps= 10 q=24.8 size=N/A time=00:00:58.05 bitrate=N/A    frame= 1745 fps= 10 q=24.8 size=N/A time=00:00:58.22 bitrate=N/A    frame= 1750 fps= 10 q=24.8 size=N/A time=00:00:58.39 bitrate=N/A    frame= 1755 fps= 10 q=24.8 size=N/A time=00:00:58.55 bitrate=N/A    frame= 1760 fps= 10 q=24.8 size=N/A time=00:00:58.72 bitrate=N/A    frame= 1765 fps= 10 q=24.8 size=N/A time=00:00:58.89 bitrate=N/A    frame= 1770 fps= 10 q=24.8 size=N/A time=00:00:59.05 bitrate=N/A    frame= 1775 fps= 10 q=24.8 size=N/A time=00:00:59.22 bitrate=N/A    frame= 1780 fps= 10 q=24.8 size=N/A time=00:00:59.39 bitrate=N/A    frame= 1785 fps= 10 q=24.8 size=N/A time=00:00:59.55 bitrate=N/A    frame= 1790 fps= 10 q=24.8 size=N/A time=00:00:59.72 bitrate=N/A    frame= 1795 fps= 10 q=24.8 size=N/A time=00:00:59.89 bitrate=N/A    frame= 1800 fps= 10 q=24.8 size=N/A time=00:01:00.06 bitrate=N/A    frame= 1805 fps= 10 q=24.8 size=N/A time=00:01:00.22 bitrate=N/A    frame= 1810 fps= 10 q=24.8 size=N/A time=00:01:00.39 bitrate=N/A    frame= 1815 fps= 10 q=24.8 size=N/A time=00:01:00.56 bitrate=N/A    frame= 1820 fps= 10 q=24.8 size=N/A time=00:01:00.72 bitrate=N/A    frame= 1825 fps= 10 q=24.8 size=N/A time=00:01:00.89 bitrate=N/A    frame= 1830 fps= 10 q=24.8 size=N/A time=00:01:01.06 bitrate=N/A    frame= 1835 fps= 10 q=24.8 size=N/A time=00:01:01.22 bitrate=N/A    frame= 1840 fps= 10 q=24.8 size=N/A time=00:01:01.39 bitrate=N/A    frame= 1845 fps= 10 q=24.8 size=N/A time=00:01:01.56 bitrate=N/A    frame= 1850 fps= 10 q=24.8 size=N/A time=00:01:01.72 bitrate=N/A    frame= 1855 fps= 10 q=24.8 size=N/A time=00:01:01.89 bitrate=N/A    frame= 1860 fps= 10 q=24.8 size=N/A time=00:01:02.06 bitrate=N/A    frame= 1865 fps= 10 q=24.8 size=N/A time=00:01:02.22 bitrate=N/A    frame= 1870 fps= 10 q=24.8 size=N/A time=00:01:02.39 bitrate=N/A    frame= 1875 fps= 10 q=24.8 size=N/A time=00:01:02.56 bitrate=N/A    frame= 1880 fps= 10 q=24.8 size=N/A time=00:01:02.72 bitrate=N/A    frame= 1885 fps= 10 q=24.8 size=N/A time=00:01:02.89 bitrate=N/A    frame= 1890 fps= 10 q=24.8 size=N/A time=00:01:03.06 bitrate=N/A    frame= 1895 fps= 10 q=24.8 size=N/A time=00:01:03.22 bitrate=N/A    frame= 1900 fps= 10 q=24.8 size=N/A time=00:01:03.39 bitrate=N/A    frame= 1905 fps= 10 q=24.8 size=N/A time=00:01:03.56 bitrate=N/A    frame= 1910 fps= 10 q=24.8 size=N/A time=00:01:03.73 bitrate=N/A    frame= 1915 fps= 10 q=24.8 size=N/A time=00:01:03.89 bitrate=N/A    frame= 1920 fps= 10 q=24.8 size=N/A time=00:01:04.06 bitrate=N/A    frame= 1925 fps= 10 q=24.8 size=N/A time=00:01:04.23 bitrate=N/A    frame= 1930 fps= 10 q=24.8 size=N/A time=00:01:04.39 bitrate=N/A    frame= 1935 fps= 10 q=24.8 size=N/A time=00:01:04.56 bitrate=N/A    frame= 1940 fps= 10 q=24.8 size=N/A time=00:01:04.73 bitrate=N/A    frame= 1945 fps= 10 q=24.8 size=N/A time=00:01:04.89 bitrate=N/A    frame= 1950 fps= 10 q=24.8 size=N/A time=00:01:05.06 bitrate=N/A    frame= 1955 fps= 10 q=24.8 size=N/A time=00:01:05.23 bitrate=N/A    frame= 1960 fps= 10 q=24.8 size=N/A time=00:01:05.39 bitrate=N/A    frame= 1965 fps= 10 q=24.8 size=N/A time=00:01:05.56 bitrate=N/A    frame= 1970 fps= 10 q=24.8 size=N/A time=00:01:05.73 bitrate=N/A    frame= 1975 fps= 10 q=24.8 size=N/A time=00:01:05.89 bitrate=N/A    frame= 1980 fps= 10 q=24.8 size=N/A time=00:01:06.06 bitrate=N/A    frame= 1985 fps= 10 q=24.8 size=N/A time=00:01:06.23 bitrate=N/A    frame= 1990 fps= 10 q=24.8 size=N/A time=00:01:06.39 bitrate=N/A    frame= 1995 fps= 10 q=24.8 size=N/A time=00:01:06.56 bitrate=N/A    frame= 2000 fps= 10 q=24.8 size=N/A time=00:01:06.73 bitrate=N/A    frame= 2005 fps= 10 q=24.8 size=N/A time=00:01:06.90 bitrate=N/A    frame= 2010 fps= 10 q=24.8 size=N/A time=00:01:07.06 bitrate=N/A    frame= 2015 fps= 10 q=24.8 size=N/A time=00:01:07.23 bitrate=N/A    frame= 2020 fps= 10 q=24.8 size=N/A time=00:01:07.40 bitrate=N/A    frame= 2025 fps= 10 q=24.8 size=N/A time=00:01:07.56 bitrate=N/A    frame= 2030 fps= 10 q=24.8 size=N/A time=00:01:07.73 bitrate=N/A    frame= 2035 fps= 10 q=24.8 size=N/A time=00:01:07.90 bitrate=N/A    frame= 2040 fps= 10 q=24.8 size=N/A time=00:01:08.06 bitrate=N/A    frame= 2045 fps= 10 q=24.8 size=N/A time=00:01:08.23 bitrate=N/A    frame= 2050 fps= 10 q=24.8 size=N/A time=00:01:08.40 bitrate=N/A    frame= 2055 fps= 10 q=24.8 size=N/A time=00:01:08.56 bitrate=N/A    frame= 2060 fps= 10 q=24.8 size=N/A time=00:01:08.73 bitrate=N/A    frame= 2065 fps= 10 q=24.8 size=N/A time=00:01:08.90 bitrate=N/A    frame= 2070 fps= 10 q=24.8 size=N/A time=00:01:09.06 bitrate=N/A    frame= 2075 fps= 10 q=24.8 size=N/A time=00:01:09.23 bitrate=N/A    frame= 2080 fps= 10 q=24.8 size=N/A time=00:01:09.40 bitrate=N/A    frame= 2085 fps= 10 q=24.8 size=N/A time=00:01:09.56 bitrate=N/A    frame= 2090 fps= 10 q=24.8 size=N/A time=00:01:09.73 bitrate=N/A    frame= 2095 fps= 10 q=24.8 size=N/A time=00:01:09.90 bitrate=N/A    frame= 2100 fps= 10 q=24.8 size=N/A time=00:01:10.07 bitrate=N/A    frame= 2105 fps= 10 q=24.8 size=N/A time=00:01:10.23 bitrate=N/A    frame= 2110 fps= 10 q=24.8 size=N/A time=00:01:10.40 bitrate=N/A    frame= 2115 fps= 10 q=24.8 size=N/A time=00:01:10.57 bitrate=N/A    frame= 2120 fps= 10 q=24.8 size=N/A time=00:01:10.73 bitrate=N/A    frame= 2125 fps= 10 q=24.8 size=N/A time=00:01:10.90 bitrate=N/A    frame= 2130 fps= 10 q=24.8 size=N/A time=00:01:11.07 bitrate=N/A    frame= 2135 fps= 10 q=24.8 size=N/A time=00:01:11.23 bitrate=N/A    frame= 2140 fps= 10 q=24.8 size=N/A time=00:01:11.40 bitrate=N/A    frame= 2145 fps= 10 q=24.8 size=N/A time=00:01:11.57 bitrate=N/A    frame= 2150 fps= 10 q=24.8 size=N/A time=00:01:11.73 bitrate=N/A    frame= 2155 fps= 10 q=24.8 size=N/A time=00:01:11.90 bitrate=N/A    frame= 2160 fps= 10 q=24.8 size=N/A time=00:01:12.07 bitrate=N/A    frame= 2165 fps= 10 q=24.8 size=N/A time=00:01:12.23 bitrate=N/A    frame= 2170 fps= 10 q=24.8 size=N/A time=00:01:12.40 bitrate=N/A    frame= 2175 fps= 10 q=24.8 size=N/A time=00:01:12.57 bitrate=N/A    frame= 2180 fps= 10 q=24.8 size=N/A time=00:01:12.73 bitrate=N/A    frame= 2185 fps= 10 q=24.8 size=N/A time=00:01:12.90 bitrate=N/A    frame= 2190 fps= 10 q=24.8 size=N/A time=00:01:13.07 bitrate=N/A    frame= 2195 fps= 10 q=24.8 size=N/A time=00:01:13.23 bitrate=N/A    frame= 2200 fps= 10 q=24.8 size=N/A time=00:01:13.40 bitrate=N/A    frame= 2205 fps= 10 q=24.8 size=N/A time=00:01:13.57 bitrate=N/A    frame= 2210 fps= 10 q=24.8 size=N/A time=00:01:13.74 bitrate=N/A    frame= 2215 fps= 10 q=24.8 size=N/A time=00:01:13.90 bitrate=N/A    frame= 2220 fps= 10 q=24.8 size=N/A time=00:01:14.07 bitrate=N/A    frame= 2225 fps= 10 q=24.8 size=N/A time=00:01:14.24 bitrate=N/A    frame= 2230 fps= 10 q=24.8 size=N/A time=00:01:14.40 bitrate=N/A    frame= 2235 fps= 10 q=24.8 size=N/A time=00:01:14.57 bitrate=N/A    frame= 2240 fps= 10 q=24.8 size=N/A time=00:01:14.74 bitrate=N/A    frame= 2245 fps= 10 q=24.8 size=N/A time=00:01:14.90 bitrate=N/A    frame= 2250 fps= 10 q=24.8 size=N/A time=00:01:15.07 bitrate=N/A    frame= 2255 fps= 10 q=24.8 size=N/A time=00:01:15.24 bitrate=N/A    frame= 2260 fps= 10 q=24.8 size=N/A time=00:01:15.40 bitrate=N/A    frame= 2265 fps= 10 q=24.8 size=N/A time=00:01:15.57 bitrate=N/A    frame= 2270 fps= 10 q=24.8 size=N/A time=00:01:15.74 bitrate=N/A    frame= 2275 fps= 10 q=24.8 size=N/A time=00:01:15.90 bitrate=N/A    frame= 2280 fps= 10 q=24.8 size=N/A time=00:01:16.07 bitrate=N/A    frame= 2285 fps= 10 q=24.8 size=N/A time=00:01:16.24 bitrate=N/A    frame= 2290 fps= 10 q=24.8 size=N/A time=00:01:16.40 bitrate=N/A    frame= 2295 fps= 10 q=24.8 size=N/A time=00:01:16.57 bitrate=N/A    frame= 2300 fps= 10 q=24.8 size=N/A time=00:01:16.74 bitrate=N/A    frame= 2305 fps= 10 q=24.8 size=N/A time=00:01:16.91 bitrate=N/A    frame= 2310 fps= 10 q=24.8 size=N/A time=00:01:17.07 bitrate=N/A    frame= 2315 fps= 10 q=24.8 size=N/A time=00:01:17.24 bitrate=N/A    frame= 2320 fps= 10 q=24.8 size=N/A time=00:01:17.41 bitrate=N/A    frame= 2325 fps= 10 q=24.8 size=N/A time=00:01:17.57 bitrate=N/A    frame= 2330 fps= 10 q=24.8 size=N/A time=00:01:17.74 bitrate=N/A    frame= 2335 fps=9.9 q=24.8 size=N/A time=00:01:17.91 bitrate=N/A    frame= 2340 fps=9.9 q=24.8 size=N/A time=00:01:18.07 bitrate=N/A    frame= 2345 fps=9.9 q=24.8 size=N/A time=00:01:18.24 bitrate=N/A    frame= 2350 fps=9.9 q=24.8 size=N/A time=00:01:18.41 bitrate=N/A    frame= 2355 fps=9.9 q=24.8 size=N/A time=00:01:18.57 bitrate=N/A    frame= 2360 fps=9.9 q=24.8 size=N/A time=00:01:18.74 bitrate=N/A    frame= 2365 fps=9.9 q=24.8 size=N/A time=00:01:18.91 bitrate=N/A    frame= 2370 fps=9.9 q=24.8 size=N/A time=00:01:19.07 bitrate=N/A    frame= 2375 fps=9.9 q=24.8 size=N/A time=00:01:19.24 bitrate=N/A    frame= 2380 fps=9.9 q=24.8 size=N/A time=00:01:19.41 bitrate=N/A    frame= 2385 fps=9.9 q=24.8 size=N/A time=00:01:19.57 bitrate=N/A    frame= 2390 fps=9.9 q=24.8 size=N/A time=00:01:19.74 bitrate=N/A    frame= 2395 fps=9.9 q=24.8 size=N/A time=00:01:19.91 bitrate=N/A    frame= 2400 fps=9.9 q=24.8 size=N/A time=00:01:20.08 bitrate=N/A    frame= 2405 fps=9.9 q=24.8 size=N/A time=00:01:20.24 bitrate=N/A    frame= 2410 fps=9.9 q=24.8 size=N/A time=00:01:20.41 bitrate=N/A    frame= 2415 fps=9.9 q=24.8 size=N/A time=00:01:20.58 bitrate=N/A    frame= 2420 fps=9.9 q=24.8 size=N/A time=00:01:20.74 bitrate=N/A    frame= 2425 fps=9.9 q=24.8 size=N/A time=00:01:20.91 bitrate=N/A    frame= 2430 fps=9.9 q=24.8 size=N/A time=00:01:21.08 bitrate=N/A    frame= 2435 fps=9.9 q=24.8 size=N/A time=00:01:21.24 bitrate=N/A    frame= 2440 fps=9.9 q=24.8 size=N/A time=00:01:21.41 bitrate=N/A    frame= 2445 fps=9.9 q=24.8 size=N/A time=00:01:21.58 bitrate=N/A    frame= 2450 fps=9.9 q=24.8 size=N/A time=00:01:21.74 bitrate=N/A    frame= 2455 fps=9.9 q=24.8 size=N/A time=00:01:21.91 bitrate=N/A    frame= 2460 fps=9.9 q=24.8 size=N/A time=00:01:22.08 bitrate=N/A    frame= 2465 fps=9.8 q=24.8 size=N/A time=00:01:22.24 bitrate=N/A    frame= 2470 fps=9.8 q=24.8 size=N/A time=00:01:22.41 bitrate=N/A    frame= 2475 fps=9.8 q=24.8 size=N/A time=00:01:22.58 bitrate=N/A    frame= 2480 fps=9.8 q=24.8 size=N/A time=00:01:22.74 bitrate=N/A    frame= 2480 fps=9.8 q=24.8 Lsize=N/A time=00:01:22.74 bitrate=N/A    
video:1469048kB audio:0kB subtitle:0kB other streams:0kB global headers:0kB muxing overhead: unknown
+ turkic load DJI_0057_100m_50m_30m_10m_homokmegy_20180331_napos_kalaszos_T1 /home/horvathandras/vatic/vatic/videos/DJI_0057_100m_50m_30m_10m_homokmegy_20180331_napos_kalaszos_T1 $'Pozit\303\255vROI' $'Negat\303\255vROI' $'T\303\272r\303\241s' '~Friss' '~1-2Hetes' '~Régebbi' '~Egyéb1' '~Egyéb2' '~Egyéb3' $'R\303\241g\303\241s' '~Friss' '~1-2Hetes' '~Régebbi' '~Egyéb1' '~Egyéb2' '~Egyéb3' $'T\303\266r\303\251s' '~Friss' '~1-2Hetes' '~Régebbi' '~Egyéb1' '~Egyéb2' '~Egyéb3' $'Tapos\303\241s' '~Friss' '~1-2Hetes' '~Régebbi' '~Egyéb1' '~Egyéb2' '~Egyéb3' $'Eg\303\251szs\303\251gesN\303\266v\303\251ny' $'Egy\303\251b1' $'Egy\303\251b2' $'Egy\303\251b3' $'Egy\303\251b4' $'Egy\303\251b5' Bizonytalan $'M\305\261vel\305\221\303\272t' $'Gktapos\303\241s' $'Vet\305\221hiba' $'Sz\303\251ld\303\266nt\303\251s' $'J\303\251gk\303\241r' $'Belv\303\255z' $'Asz\303\241ly' $'Er\303\263zi\303\263' $'Egyszik\305\261Gyom' $'K\303\251tszik\305\261Gyom' $'Egy\303\251bN\303\266vv\303\251delmiPR' --offline --title '$filenameNoDot Video' --length 1000 --description 'vatic annotation'
+ turkic publish --offline
+ mkdir /home/horvathandras/vatic/vatic/public/videothumbnails/DJI_0057_100m_50m_30m_10m_homokmegy_20180331_napos_kalaszos_T1
+ cp /home/horvathandras/vatic/vatic/videos/DJI_0057_100m_50m_30m_10m_homokmegy_20180331_napos_kalaszos_T1/0/0/31.jpg /home/horvathandras/vatic/vatic/public/videothumbnails/DJI_0057_100m_50m_30m_10m_homokmegy_20180331_napos_kalaszos_T1/thumb.jpg
